<svg xmlns="http://www.w3.org/2000/svg" width="128" height="128" viewBox="0 0 24 24" fill="none" role="img" aria-labelledby="title">
  <title id="title">Umbraco Community Automate</title>
  <g stroke="#283A97" stroke-linecap="round" stroke-linejoin="round"><circle cx="15.5" cy="9.5" r="5" stroke-width="1.5"/><path d="M15.5 2.5v1.75M15.5 14.75v1.75M8.5 9.5h1.75M20.75 9.5h1.75M10.55 4.55l1.25 1.25M19.2 13.2l1.25 1.25M20.45 4.55 19.2 5.8M11.8 13.2l-1.25 1.25" stroke-width="2"/></g>
  <path d="m16.25 5.75-3 4.25h2.25l-.75 3.25 3-4.5H15.5l.75-3Z" fill="#F5C1BC"/><path d="M4.5 14v-2.5H9" stroke="#283A97" stroke-width="1.5" stroke-linecap="round" stroke-linejoin="round"/><rect x="3.25" y="10.25" width="2.5" height="2.5" rx=".5" fill="#F5C1BC"/><rect x="7.75" y="10.25" width="2.5" height="2.5" rx=".5" fill="#F5C1BC"/>
  <g fill="#283A97"><circle cx="3.75" cy="17" r="1"/><circle cx="6.5" cy="16.25" r="1.15"/><circle cx="9.25" cy="17" r="1"/><path d="M2.25 20c0-1.25.65-2 1.5-2s1.5.75 1.5 2v.75h-3V20ZM4.5 20c0-1.5.85-2.4 2-2.4s2 .9 2 2.4v1h-4v-1ZM7.75 20c0-1.25.65-2 1.5-2s1.5.75 1.5 2v.75h-3V20Z"/></g>
</svg>
